<?xml version="1.0" encoding="UTF-8" standalone="no"?>
<!-- Created with Inkscape (http://www.inkscape.org/) -->

<svg
   xmlns:dc="http://purl.org/dc/elements/1.1/"
   xmlns:cc="http://creativecommons.org/ns#"
   xmlns:rdf="http://www.w3.org/1999/02/22-rdf-syntax-ns#"
   xmlns:svg="http://www.w3.org/2000/svg"
   xmlns="http://www.w3.org/2000/svg"
   xmlns:sodipodi="http://sodipodi.sourceforge.net/DTD/sodipodi-0.dtd"
   xmlns:inkscape="http://www.inkscape.org/namespaces/inkscape"
   width="23.109413mm"
   height="30.879343mm"
   viewBox="0 0 23.109413 30.879343"
   version="1.1"
   id="svg1269"
   inkscape:version="0.92.3 (2405546, 2018-03-11)"
   sodipodi:docname="logotipo_uco.svg">
  <defs
     id="defs1263" />
  <sodipodi:namedview
     id="base"
     pagecolor="#ffffff"
     bordercolor="#666666"
     borderopacity="1.0"
     inkscape:pageopacity="0.0"
     inkscape:pageshadow="2"
     inkscape:zoom="1.979899"
     inkscape:cx="37.931766"
     inkscape:cy="-16.632333"
     inkscape:document-units="mm"
     inkscape:current-layer="g1467"
     showgrid="false"
     fit-margin-top="0"
     fit-margin-left="0"
     fit-margin-right="0"
     fit-margin-bottom="0"
     inkscape:window-width="1853"
     inkscape:window-height="1022"
     inkscape:window-x="67"
     inkscape:window-y="30"
     inkscape:window-maximized="1" />
  <metadata
     id="metadata1266">
    <rdf:RDF>
      <cc:Work
         rdf:about="">
        <dc:format>image/svg+xml</dc:format>
        <dc:type
           rdf:resource="http://purl.org/dc/dcmitype/StillImage" />
        <dc:title></dc:title>
      </cc:Work>
    </rdf:RDF>
  </metadata>
  <g
     inkscape:label="Capa 1"
     inkscape:groupmode="layer"
     id="layer1"
     transform="translate(9.9132469,-206.72104)">
    <g
       id="g1467">
      <g
         transform="matrix(0.35277777,0,0,-0.35277777,10.567796,213.97899)"
         id="g218">
        <path
           inkscape:connector-curvature="0"
           id="path220"
           style="fill:#9b1627;fill-opacity:1;fill-rule:nonzero;stroke:none"
           d="M 0,0 C -1.667,2.08 -3.582,3.951 -5.706,5.565 L -25.291,-43.639 Z" />
      </g>
      <g
         transform="matrix(0.35277777,0,0,-0.35277777,6.0917871,210.58689)"
         id="g222">
        <path
           inkscape:connector-curvature="0"
           id="path224"
           style="fill:#9b1627;fill-opacity:1;fill-rule:nonzero;stroke:none"
           d="m 0,0 c -2.467,1.043 -5.091,1.785 -7.826,2.19 l -4.777,-55.444 z" />
      </g>
      <g
         transform="matrix(0.35277777,0,0,-0.35277777,12.854465,218.87544)"
         id="g226">
        <path
           inkscape:connector-curvature="0"
           id="path228"
           style="fill:#9b1627;fill-opacity:1;fill-rule:nonzero;stroke:none"
           d="m 0,0 c -0.504,2.531 -1.307,4.953 -2.363,7.234 l -29.41,-36.993 z" />
      </g>
      <g
         transform="matrix(0.35277777,0,0,-0.35277777,12.738684,223.88033)"
         id="g230">
        <path
           inkscape:connector-curvature="0"
           id="path232"
           style="fill:#9b1627;fill-opacity:1;fill-rule:nonzero;stroke:none"
           d="M 0,0 C 0.548,2.211 0.865,4.513 0.933,6.877 L -31.445,-15.572 Z" />
      </g>
      <g
         transform="matrix(0.35277777,0,0,-0.35277777,-8.5199496,215.89595)"
         id="g234">
        <path
           inkscape:connector-curvature="0"
           id="path236"
           style="fill:#9b1627;fill-opacity:1;fill-rule:nonzero;stroke:none"
           d="M 0,0 C -1.159,-2.25 -2.062,-4.652 -2.671,-7.171 L 28.816,-38.205 Z" />
      </g>
      <g
         transform="matrix(0.35277777,0,0,-0.35277777,-9.7820491,221.01154)"
         id="g238">
        <path
           inkscape:connector-curvature="0"
           id="path240"
           style="fill:#9b1627;fill-opacity:1;fill-rule:nonzero;stroke:none"
           d="m 0,0 c -0.001,-0.103 -0.008,-0.205 -0.008,-0.308 0,-2.288 0.241,-4.52 0.692,-6.674 l 31.71,-16.722 z" />
      </g>
      <g
         transform="matrix(0.35277777,0,0,-0.35277777,-4.8632676,211.72601)"
         id="g242">
        <path
           inkscape:connector-curvature="0"
           id="path244"
           style="fill:#9b1627;fill-opacity:1;fill-rule:nonzero;stroke:none"
           d="M 0,0 C -2.199,-1.526 -4.198,-3.319 -5.954,-5.329 L 18.451,-50.025 Z" />
      </g>
      <g
         transform="matrix(0.35277777,0,0,-0.35277777,0.45743212,209.75133)"
         id="g246">
        <path
           inkscape:connector-curvature="0"
           id="path248"
           style="fill:#9b1627;fill-opacity:1;fill-rule:nonzero;stroke:none"
           d="M 0,0 C -2.758,-0.285 -5.411,-0.917 -7.92,-1.85 L 3.368,-55.622 Z" />
      </g>
      <g
         transform="matrix(0.35277777,0,0,-0.35277777,1.6414611,231.7622)"
         id="g250">
        <path
           inkscape:connector-curvature="0"
           id="path252"
           style="fill:#1f184b;fill-opacity:1;fill-rule:nonzero;stroke:none"
           d="m 0,0 c -7.635,0 -13.847,6.212 -13.847,13.847 0,7.636 6.212,13.848 13.847,13.848 7.635,0 13.847,-6.212 13.847,-13.848 C 13.847,6.212 7.635,0 0,0" />
      </g>
      <g
         transform="matrix(0.35277777,0,0,-0.35277777,1.6414951,222.81251)"
         id="g254">
        <path
           inkscape:connector-curvature="0"
           id="path256"
           style="fill:#f1b700;fill-opacity:1;fill-rule:nonzero;stroke:none"
           d="m 0,0 c 6.363,0 11.522,-5.158 11.522,-11.522 0,-6.363 -5.159,-11.521 -11.522,-11.521 -6.363,0 -11.522,5.158 -11.522,11.521 C -11.522,-5.158 -6.363,0 0,0 m 0,4.651 c -8.918,0 -16.173,-7.255 -16.173,-16.173 0,-8.918 7.255,-16.173 16.173,-16.173 8.918,0 16.173,7.255 16.173,16.173 C 16.173,-2.604 8.918,4.651 0,4.651" />
      </g>
      <g
         transform="matrix(0.35277777,0,0,-0.35277777,1.6402251,206.72104)"
         id="g258">
        <path
           inkscape:connector-curvature="0"
           id="path260"
           style="fill:#1f184b;fill-opacity:1;fill-rule:nonzero;stroke:none"
           d="M 0,0 -32.75,-17.313 V -70.22 L 0,-87.532 32.757,-70.22 v 52.907 z m 29.631,-44.935 c -0.001,-1.835 -0.369,-3.511 -0.822,-3.744 -0.454,-0.234 -0.821,-0.423 -0.821,-0.423 L 4.76,-61.378 c -1.896,-1.002 -3.559,-2.684 -4.756,-4.652 -1.198,1.967 -2.861,3.65 -4.757,4.652 l -23.228,12.276 -0.817,0.412 c -0.452,0.228 -0.821,1.9 -0.823,3.735 -0.001,1.427 -0.003,3.049 -0.003,4.299 0,16.363 13.265,29.628 29.628,29.628 16.362,0 29.627,-13.265 29.627,-29.628 0,-1.246 0,-2.86 0,-4.279" />
      </g>
      <g
         transform="matrix(0.35277777,0,0,-0.35277777,5.7060961,226.87707)"
         id="g262">
        <path
           inkscape:connector-curvature="0"
           id="path264"
           style="fill:#1f184b;fill-opacity:1;fill-rule:nonzero;stroke:none"
           d="m 0,0 c 0,-6.363 -5.158,-11.522 -11.522,-11.522 -6.363,0 -11.521,5.159 -11.521,11.522 0,6.363 5.158,11.522 11.521,11.522 C -5.158,11.522 0,6.363 0,0" />
      </g>
      <g
         transform="matrix(0.35277777,0,0,-0.35277777,-0.61628178,229.4708)"
         id="g266">
        <path
           inkscape:connector-curvature="0"
           id="path268"
           style="fill:#ffffff;fill-opacity:1;fill-rule:nonzero;stroke:none"
           d="M 0,0 -23.228,12.276 V -3.848 L 4.837,-18.681 V -8.027 C 4.837,-5.006 2.671,-1.412 0,0 M 12.8,0 C 10.129,-1.412 7.963,-5.006 7.963,-8.027 v -10.654 l 28.065,14.833 v 16.124 z" />
      </g>
    </g>
  </g>
</svg>
